<?xml version="1.0" standalone="no"?>
<!DOCTYPE svg PUBLIC "-//W3C//DTD SVG 20010904//EN"
 "http://www.w3.org/TR/2001/REC-SVG-20010904/DTD/svg10.dtd">
<svg version="1.0" xmlns="http://www.w3.org/2000/svg"
 width="70.000000pt" height="70.000000pt" viewBox="0 0 70.000000 70.000000"
 preserveAspectRatio="xMidYMid meet">
<metadata>
Created by potrace 1.14, written by Peter Selinger 2001-2017
</metadata>
<g transform="translate(0.000000,70.000000) scale(0.100000,-0.100000)"
fill="#000000" stroke="none">
<path d="M94 693 l-81 -4 -6 -112 c-4 -62 -7 -217 -7 -346 l0 -234 340 5 c187
2 343 8 347 12 4 4 9 160 11 346 l4 340 -263 -2 c-145 -1 -300 -4 -345 -5z
m271 -173 c3 -5 -1 -10 -9 -10 -9 0 -16 5 -16 10 0 6 4 10 9 10 6 0 13 -4 16
-10z m-136 -107 c1 -32 2 -33 45 -33 36 0 46 4 51 20 9 28 29 25 21 -2 -3 -13
-6 -28 -6 -34 0 -8 -19 -11 -52 -10 l-53 1 -10 -75 -11 -75 -7 49 c-9 61 -9
183 0 216 l7 25 7 -25 c4 -14 7 -40 8 -57z m242 -2 c-15 -10 -29 -80 -30 -148
-1 -39 1 -43 24 -43 14 0 25 -5 25 -10 0 -6 -12 -10 -27 -9 -16 1 -36 -2 -47
-6 -16 -7 -17 -6 -7 13 6 11 11 57 11 101 0 71 -2 82 -22 95 -21 15 -20 16 32
16 36 0 50 -3 41 -9z"/>
</g>
</svg>
