<?xml version="1.0" standalone="no"?>
<!DOCTYPE svg PUBLIC "-//W3C//DTD SVG 20010904//EN"
 "http://www.w3.org/TR/2001/REC-SVG-20010904/DTD/svg10.dtd">
<svg version="1.0" xmlns="http://www.w3.org/2000/svg"
 width="400.000000pt" height="400.000000pt" viewBox="0 0 400.000000 400.000000"
 preserveAspectRatio="xMidYMid meet">
<metadata>
Created by potrace 1.11, written by Peter Selinger 2001-2013
</metadata>
<g transform="translate(0.000000,400.000000) scale(0.100000,-0.100000)"
fill="#000000" stroke="none">
<path d="M0 2000 l0 -2000 2000 0 2000 0 0 2000 0 2000 -2000 0 -2000 0 0
-2000z m2798 411 c8 -79 -174 -261 -261 -261 -38 0 -51 23 -38 63 13 37 47 75
58 63 4 -4 2 -16 -5 -27 -10 -16 -10 -24 -1 -35 37 -45 135 24 185 129 21 43
8 67 -35 67 -37 0 -123 -52 -160 -97 -90 -108 -109 -227 -47 -289 27 -27 42
-34 73 -34 44 0 116 40 150 83 11 15 22 24 25 22 3 -3 -1 -33 -8 -67 -16 -75
-18 -184 -4 -193 14 -9 12 -21 -6 -40 -42 -41 -59 62 -29 175 8 30 13 55 11
57 -1 2 -20 -12 -42 -31 -51 -43 -112 -75 -158 -83 -40 -6 -92 11 -100 34 -5
12 -11 10 -35 -9 -67 -57 -154 -62 -167 -11 -6 20 -2 31 16 45 23 18 23 18 45
-2 45 -43 64 -8 19 37 l-25 25 -25 -23 c-34 -32 -30 -11 7 34 36 43 57 46 88
13 18 -19 22 -33 19 -60 -2 -20 -2 -36 2 -36 22 1 31 24 34 82 2 53 9 81 40
142 69 141 233 271 331 264 37 -3 40 -5 43 -37z m-2516 -228 l3 -198 59 178
c33 98 63 180 68 183 20 13 30 -17 39 -117 6 -57 14 -131 17 -164 l7 -60 59
165 c63 176 79 210 100 210 10 0 15 -28 20 -108 10 -168 40 -262 97 -305 37
-27 79 -16 102 26 10 18 34 45 53 61 42 33 79 29 95 -11 9 -25 10 -25 29 -8
21 19 40 13 40 -14 0 -24 24 -44 47 -39 10 2 27 18 38 35 24 39 31 40 39 8 8
-32 47 -58 77 -50 22 6 24 12 27 85 2 44 1 80 -1 80 -3 0 -26 -9 -52 -20 -26
-11 -51 -17 -57 -14 -15 9 5 25 64 50 48 20 54 26 63 66 14 57 45 66 45 13 0
-25 4 -35 13 -31 6 2 28 10 49 17 30 10 37 17 43 48 9 49 23 71 43 71 26 0 42
-20 42 -53 0 -17 8 -35 17 -42 15 -11 14 -14 -10 -30 -15 -9 -27 -23 -27 -30
0 -7 -13 -45 -30 -85 -29 -71 -39 -140 -21 -140 6 0 22 16 37 35 30 39 50 44
59 15 8 -24 61 -70 81 -70 11 0 13 6 9 21 -14 42 -13 136 1 209 17 91 43 144
74 148 22 4 22 3 18 -86 -3 -70 -10 -100 -30 -142 -26 -51 -26 -55 -11 -81 19
-31 58 -52 82 -44 9 3 26 28 38 55 21 47 74 95 98 87 21 -7 15 -45 -15 -85
-35 -49 -37 -58 -10 -67 33 -10 53 2 108 65 29 33 62 60 72 60 31 0 63 -50 57
-87 -6 -35 3 -42 23 -18 16 19 30 19 30 1 0 -21 -55 -64 -100 -77 -47 -14 -86
-6 -101 22 -9 18 -7 26 15 47 l26 26 20 -22 c12 -12 25 -22 30 -22 19 0 10 37
-14 59 l-24 22 -48 -56 c-74 -86 -118 -103 -168 -64 -24 19 -27 19 -48 5 -28
-20 -68 -20 -93 -2 -17 12 -22 12 -39 0 -36 -25 -81 -18 -111 17 l-26 32 -29
-34 c-29 -33 -30 -33 -36 -12 l-6 23 -25 -20 c-36 -28 -87 -26 -110 4 l-19 23
-34 -23 c-47 -32 -76 -31 -98 5 l-17 29 -28 -24 c-51 -43 -115 -24 -105 31 7
35 -3 31 -35 -16 -15 -22 -38 -44 -51 -51 -32 -14 -73 -3 -81 21 -6 19 -7 19
-42 -5 -49 -33 -97 -32 -133 4 -39 39 -52 95 -59 247 l-6 130 -24 -60 c-13
-33 -41 -112 -63 -175 -40 -118 -63 -164 -77 -156 -4 3 -11 58 -14 123 -13
244 -33 240 -113 -22 -27 -90 -39 -115 -55 -115 -9 0 -12 467 -3 481 18 30 24
-12 26 -188z m3253 -112 c-3 -14 -20 -43 -36 -63 -29 -37 -29 -37 -8 -48 34
-19 61 -5 117 60 29 33 61 60 71 60 30 0 56 -38 55 -81 -2 -42 6 -48 26 -24
16 19 30 19 30 1 0 -21 -55 -64 -100 -77 -47 -14 -86 -6 -101 22 -9 18 -7 25
16 48 l27 26 15 -22 c9 -13 22 -23 29 -23 23 0 16 35 -11 60 l-26 24 -27 -33
c-86 -105 -133 -129 -181 -93 -24 17 -29 18 -46 6 -33 -25 -70 -17 -104 21
-17 19 -34 35 -38 35 -4 0 -24 -19 -43 -42 -40 -46 -60 -45 -60 3 0 37 -13 37
-40 -1 -12 -16 -25 -30 -29 -30 -3 0 -15 13 -24 30 -10 16 -25 37 -34 45 -15
15 -14 19 4 43 28 38 45 37 72 -3 l24 -36 33 32 c36 35 49 33 59 -12 l7 -31
34 38 35 37 42 -41 c43 -43 87 -56 87 -27 0 30 41 96 72 115 40 24 62 16 53
-19z m-605 -7 c11 -12 11 -18 -2 -30 -14 -14 -18 -14 -43 2 -27 18 -28 18 -46
-5 -23 -28 -23 -35 -4 -54 19 -19 52 -11 67 17 12 21 12 21 18 -3 8 -35 35
-49 61 -33 37 24 35 1 -3 -34 -46 -41 -85 -45 -94 -9 l-6 24 -38 -25 c-32 -21
-42 -24 -59 -14 -51 27 -9 121 74 164 38 20 59 20 75 0z"/>
<path d="M1487 2273 c-15 -14 -6 -31 12 -26 12 3 17 11 14 19 -6 15 -16 18
-26 7z"/>
<path d="M1709 2264 c-13 -16 -24 -127 -17 -174 3 -25 4 -24 21 8 21 39 35
166 19 175 -5 4 -16 0 -23 -9z"/>
<path d="M1483 2203 c-9 -3 -13 -26 -12 -66 l0 -62 13 35 c20 53 29 100 19 99
-4 0 -14 -3 -20 -6z"/>
<path d="M1393 2178 c-83 -27 -69 -218 17 -218 31 0 38 23 42 128 3 112 5 110
-59 90z"/>
<path d="M1882 2058 c-14 -14 -16 -58 -2 -58 12 0 30 33 30 54 0 19 -11 21
-28 4z"/>
<path d="M904 2027 c-6 -18 19 -67 35 -67 17 0 41 12 41 20 0 5 -10 10 -22 12
-12 2 -28 14 -35 28 -10 21 -13 22 -19 7z"/>
<path d="M3472 2058 c-7 -7 -12 -26 -12 -42 l1 -31 19 24 c31 37 24 81 -8 49z"/>
</g>
</svg>
